<?xml version="1.0" encoding="UTF-8"?>
<svg xmlns="http://www.w3.org/2000/svg" version="1.1" viewBox="0 0 512 512">
  <defs>
    <style>
      .cls-1 {
        fill: #a9a9a9;
      }
    </style>
  </defs>
  <!-- Generator: Adobe Illustrator 28.6.0, SVG Export Plug-In . SVG Version: 1.2.0 Build 709)  -->
  <g>
    <g id="Layer_1">
      <path class="cls-1" d="M64,21.2c5.7,3.9,10.5,8.4,15.3,13.2l2.3,2.3c2.5,2.5,5,5,7.5,7.6,1.8,1.8,3.6,3.6,5.4,5.4,3.9,3.9,7.8,7.8,11.7,11.7,5.6,5.6,11.2,11.3,16.9,16.9,9.1,9.1,18.2,18.3,27.4,27.4,8.9,8.9,17.7,17.7,26.6,26.6l1.7,1.7,8.2,8.2c22.7,22.7,45.4,45.5,68.1,68.2,2.9-1.3,4.8-2.7,7-5l2-2,2.1-2.2,2.3-2.3c2.5-2.5,5-5.1,7.6-7.6l5.4-5.4c3.9-3.9,7.8-7.8,11.7-11.7,5.6-5.7,11.3-11.3,16.9-17,9.2-9.2,18.3-18.4,27.5-27.5l1.7-1.7c7.8-7.8,15.5-15.6,23.3-23.4l1.7-1.7,1.7-1.7c9.1-9.1,18.2-18.3,27.3-27.4,5.6-5.6,11.2-11.3,16.8-16.9,3.8-3.9,7.7-7.7,11.6-11.6,2.2-2.2,4.4-4.5,6.7-6.7,2.4-2.4,4.8-4.8,7.2-7.3l2.1-2.1c7.2-7.1,15.3-12.2,25.6-12.3,8.4.1,17,2.7,23.1,8.7,7.6,9.3,9.2,17.2,8.6,28.9-1,10.3-10.2,18.6-17.1,25.5l-2.3,2.3c-2.5,2.5-5,5-7.6,7.5-1.8,1.8-3.6,3.6-5.4,5.4-3.9,3.9-7.8,7.8-11.7,11.7-5.6,5.6-11.3,11.2-16.9,16.9-9.1,9.1-18.3,18.2-27.4,27.4-8.9,8.9-17.7,17.7-26.6,26.6l-1.7,1.7-8.2,8.2c-22.7,22.7-45.5,45.4-68.2,68.1,4.1,5,8.5,9.6,13.1,14.1l2.3,2.2c2.5,2.5,5,4.9,7.4,7.4l5.4,5.3c3.3,3.3,6.7,6.7,10,10,7.6,7.6,15.2,15.1,22.8,22.7l4.7,4.7c6.4,6.4,12.9,12.9,19.3,19.3,8.7,8.7,17.5,17.4,26.2,26.1,9,8.9,18,17.9,27,26.9,5.5,5.5,11.1,11,16.6,16.5,3.8,3.8,7.6,7.6,11.4,11.3,2.2,2.2,4.4,4.4,6.6,6.5,2.4,2.4,4.8,4.7,7.1,7.1l2.1,2c7.9,8,11.3,16.4,11.3,27.6-.2,8.4-3.4,14.9-9,21.2-1.1,1-2.3,1.9-3.5,2.9l-1.8,1.4c-7.6,4.8-17.4,4.3-26.1,3.2-14.1-3.6-26.3-20.5-36.1-30.4l-5.3-5.3c-3.8-3.8-7.6-7.6-11.3-11.4-5.5-5.5-10.9-10.9-16.4-16.4-8.9-8.9-17.8-17.8-26.6-26.6-8.6-8.6-17.2-17.2-25.8-25.9l-1.6-1.6-8-8c-22.1-22.1-44.2-44.2-66.3-66.4-2.9,1.3-4.8,2.7-7,4.9l-1.9,1.9-2.1,2.1-2.3,2.3c-2.5,2.5-5,5-7.5,7.6l-5.4,5.4c-3.9,3.9-7.7,7.8-11.6,11.7-5.6,5.6-11.2,11.2-16.8,16.9-9.1,9.1-18.2,18.3-27.3,27.4l-1.6,1.7c-7.7,7.7-15.4,15.5-23.2,23.3l-1.6,1.7-1.6,1.7c-9.1,9.1-18.1,18.2-27.2,27.3-5.6,5.6-11.2,11.2-16.7,16.8-3.8,3.8-7.7,7.7-11.5,11.5-2.2,2.2-4.4,4.4-6.6,6.7-2.4,2.4-4.8,4.8-7.2,7.2l-2.1,2.1c-9.1,9-17,12.4-29.6,12.4-8.8-.2-14-2.6-20.5-8.4-6.7-7.3-8.8-14.7-8.6-24.4.9-18.2,18.1-30.1,30.1-42.1l5.3-5.3c3.8-3.8,7.6-7.6,11.5-11.5,5.5-5.5,11.1-11.1,16.6-16.6,9-9,17.9-17.9,26.9-26.9,8.7-8.7,17.4-17.4,26.1-26.1l1.6-1.6,8.1-8.1c22.4-22.3,44.7-44.7,67.1-67-4.1-5-8.5-9.6-13.1-14.1l-2.2-2.2c-2.5-2.5-4.9-4.9-7.4-7.4l-5.3-5.3c-3.8-3.8-7.6-7.6-11.5-11.4-6-6-12.1-12-18.1-18.1l-6.2-6.2-1.6-1.6c-6.4-6.4-12.8-12.8-19.2-19.2-8.7-8.7-17.4-17.3-26.1-26-8.9-8.9-17.9-17.8-26.8-26.8-5.5-5.5-11-11-16.5-16.5-3.8-3.8-7.6-7.5-11.3-11.3-2.2-2.2-4.3-4.3-6.5-6.5-2.4-2.4-4.7-4.7-7.1-7.1l-2.1-2.1c-8.6-8.6-12.2-16.5-12.2-28.6.1-5.5,1.1-9.7,4.1-14.4l1-1.8c4-6.5,10.9-10.6,18.1-12.7,8.4-1.6,16.3-1,23.8,3.3Z"/>
    </g>
  </g>
</svg>