<?xml version="1.0" encoding="UTF-8"?>
<svg xmlns="http://www.w3.org/2000/svg" version="1.1" viewBox="0 0 512 512">
  <defs>
    <style>
      .cls-1 {
        fill: #ccc;
      }
    </style>
  </defs>
  <!-- Generator: Adobe Illustrator 28.7.7, SVG Export Plug-In . SVG Version: 1.2.0 Build 194)  -->
  <g>
    <g id="Layer_1">
      <path class="cls-1" d="M492.6,169.5c-5.2,8.6-13,15.5-20,22.6l-2.6,2.6-6.9,6.9-7.5,7.5-16.4,16.4c-3.4,3.4-6.8,6.8-10.2,10.3-9.5,9.5-18.9,19-28.4,28.4l-1.8,1.8-1.8,1.8-3.7,3.7-1.8,1.8c-9.9,9.9-19.8,19.8-29.6,29.7-10.1,10.2-20.3,20.3-30.5,30.5l-17.1,17.1c-4.8,4.9-9.7,9.7-14.5,14.6l-7.4,7.4c-2.7,2.7-5.4,5.4-8.1,8-.8.8-1.6,1.6-2.3,2.4-7.4,7.3-14.6,13.3-25.4,13.8-7.2-.2-12.7-1.8-18.1-6.8-.8-.8-1.6-1.5-2.5-2.3-3.9-3.7-7.8-7.5-11.6-11.4l-2.6-2.6-7.2-7.2-7.8-7.8c-6.2-6.2-12.5-12.4-18.7-18.7l-5.3-5.3c-11-10.9-21.9-21.9-32.9-32.8l-7.6-7.6-1.9-1.9c-10.2-10.2-20.4-20.4-30.7-30.6-10.5-10.5-21-20.9-31.5-31.4-5.9-5.9-11.8-11.8-17.7-17.6l-15-15c-2.6-2.6-5.1-5.1-7.7-7.6l-8.3-8.3c-.8-.8-1.6-1.6-2.5-2.4-6.4-6.5-10.3-12.5-10.3-21.9.4-11.4,5.9-17.8,13.6-25.7.8-.9,1.7-1.8,2.6-2.7,7.5-7.8,14.4-13.8,25.6-14.4,13.1.4,21,9.3,29.6,18l2.2,2.2,7.2,7.2,5.2,5.2,11.1,11.1,16,16,26,26,25.2,25.2,1.6,1.6,7.8,7.8,64.7,64.7c2.8-1.3,4.8-2.7,6.9-4.8l1.9-1.9c.7-.7,1.3-1.4,2-2.1l2.2-2.2c2.4-2.4,4.8-4.9,7.2-7.3l5.2-5.2,11.2-11.2c5.9-5.9,11.8-11.9,17.7-17.8,2-2,4-4.1,6.1-6.1l1.5-1.5c5.7-5.8,11.5-11.5,17.2-17.3.5-.5,1-1.1,1.6-1.6,8.5-8.5,17-17.1,25.5-25.6,8.7-8.8,17.5-17.5,26.2-26.3,5.4-5.4,10.8-10.8,16.1-16.2l11.1-11.1,6.4-6.4c2.3-2.3,4.6-4.6,6.9-7l2-2c6.3-6.2,13.2-10.4,22.2-10.9,11.9.3,19.2,7.1,27.2,15.2l4.1,4.1c9.8,9.7,15.4,21.4,9.2,35.1v-.2Z"/>
    </g>
  </g>
</svg>