<?xml version="1.0" encoding="UTF-8"?>
<svg xmlns="http://www.w3.org/2000/svg" version="1.1" viewBox="0 0 512 512">
  <defs>
    <style>
      .cls-1 {
        opacity: .8;
      }
    </style>
  </defs>
  <!-- Generator: Adobe Illustrator 28.6.0, SVG Export Plug-In . SVG Version: 1.2.0 Build 709)  -->
  <g>
    <g id="Layer_1">
      <path class="cls-1" d="M83.6,46.5h346.5c19.3,0,37,4.9,51.2,18.5,12.4,12.4,20.5,28.6,20.6,46.2v6c-.4,21-11.5,36.7-22.6,53.9-2.6,3.9-5.1,7.9-7.6,11.9-.9,1.5-1.9,3-2.8,4.5-.5.7-.9,1.5-1.4,2.2l-4.2,6.6c-5.3,8.4-10.7,16.9-15.9,25.4-6.7,10.7-13.4,21.3-20.1,31.9-5.8,9.2-11.6,18.4-17.3,27.6-5.7,9.2-11.5,18.4-17.3,27.5-2.4,3.8-4.8,7.5-7.1,11.3-2.8,4.5-5.7,9-8.5,13.5-5.3,8.4-10.6,16.9-15.9,25.4-6.7,10.7-13.4,21.3-20.1,31.9l-4.2,6.6c-.5.7-.9,1.5-1.4,2.2-2.7,4.3-5.4,8.7-8.1,13-18.2,29.3-36.5,46.5-54.8,51.6-19.5,4-38.9.4-55.7-10.4-13.8-10-21.9-25.2-30.7-39.3-1.2-1.9-2.4-3.8-3.5-5.7-1.8-2.9-3.7-5.9-5.5-8.8-5.1-8.2-10.3-16.4-15.5-24.6-2.9-4.5-5.7-9.1-8.6-13.6-2.4-3.7-4.7-7.5-7.1-11.2-6-9.4-11.9-18.9-17.8-28.3-5.6-8.9-11.2-17.9-16.9-26.8-6.9-10.9-13.7-21.8-20.6-32.7-5.1-8.2-10.3-16.4-15.5-24.6-2.9-4.5-5.7-9.1-8.6-13.6-2.4-3.7-4.7-7.5-7.1-11.2-6-9.4-11.9-18.9-17.8-28.3-3.3-5.3-6.7-10.6-10-15.9-1.9-2.9-3.7-5.9-5.6-8.8-.8-1.3-1.7-2.7-2.5-4-11.3-17.7-16.4-36.5-12.6-57.7,4.7-18.1,16-33.3,32-43,13.1-7.2,25.8-9.1,40.6-9v-.2Z"/>
    </g>
  </g>
</svg>