<?xml version="1.0" encoding="UTF-8"?>
<svg id="Layer_1" xmlns="http://www.w3.org/2000/svg" version="1.1" xmlns:xlink="http://www.w3.org/1999/xlink" viewBox="0 0 512 512">
  <!-- Generator: Adobe Illustrator 29.5.1, SVG Export Plug-In . SVG Version: 2.1.0 Build 141)  -->
  <defs>
    <style>
      .st0 {
        fill: url(#New_Gradient_Swatch_2);
      }

      .st0, .st1 {
        display: none;
      }

      .st1 {
        fill: url(#New_Gradient_Swatch_1);
      }

      .st2 {
        fill: url(#linear-gradient);
      }

      .st3 {
        opacity: .8;
      }
    </style>
    <linearGradient id="linear-gradient" x1="424" y1="344.6" x2="112.3" y2="-14" gradientUnits="userSpaceOnUse">
      <stop offset="0" stop-color="#7b69ff"/>
      <stop offset="0" stop-color="#7964fe"/>
      <stop offset="0" stop-color="#6e44fc"/>
      <stop offset=".1" stop-color="#6731fa"/>
      <stop offset=".2" stop-color="#652afa"/>
      <stop offset=".2" stop-color="#642bf9"/>
      <stop offset=".3" stop-color="#5f59f2"/>
      <stop offset=".4" stop-color="#5b7ded"/>
      <stop offset=".4" stop-color="#5896e9"/>
      <stop offset=".5" stop-color="#56a6e6"/>
      <stop offset=".6" stop-color="#56ace6"/>
      <stop offset=".6" stop-color="#4daac8"/>
      <stop offset=".7" stop-color="#3fa997"/>
      <stop offset=".8" stop-color="#33a771"/>
      <stop offset=".8" stop-color="#2ba655"/>
      <stop offset=".9" stop-color="#26a644"/>
      <stop offset=".9" stop-color="#25a63f"/>
    </linearGradient>
    <linearGradient id="New_Gradient_Swatch_1" data-name="New Gradient Swatch 1" x1="409.8" y1="338.3" x2="97.1" y2="-21.4" gradientUnits="userSpaceOnUse">
      <stop offset="0" stop-color="#493f99"/>
      <stop offset="0" stop-color="#4b3d96"/>
      <stop offset=".2" stop-color="#533a91"/>
      <stop offset=".3" stop-color="#49497b"/>
      <stop offset=".5" stop-color="#43546c"/>
      <stop offset=".6" stop-color="#415867"/>
      <stop offset=".7" stop-color="#396554"/>
      <stop offset=".8" stop-color="#327143"/>
      <stop offset=".9" stop-color="#30763e"/>
    </linearGradient>
    <linearGradient id="New_Gradient_Swatch_2" data-name="New Gradient Swatch 2" x1="409.8" y1="338.3" x2="97.1" y2="-21.4" gradientUnits="userSpaceOnUse">
      <stop offset="0" stop-color="#473d94"/>
      <stop offset="0" stop-color="#4b3e98"/>
      <stop offset=".1" stop-color="#5e44ab"/>
      <stop offset=".2" stop-color="#6647b3"/>
      <stop offset=".2" stop-color="#6454ad"/>
      <stop offset=".4" stop-color="#626da2"/>
      <stop offset=".5" stop-color="#617d9b"/>
      <stop offset=".6" stop-color="#618399"/>
      <stop offset=".6" stop-color="#598b89"/>
      <stop offset=".7" stop-color="#4d9a6d"/>
      <stop offset=".8" stop-color="#45a25c"/>
      <stop offset=".9" stop-color="#43a657"/>
    </linearGradient>
  </defs>
  <g id="Layer_11" data-name="Layer_1" class="st3">
    <path class="st2" d="M80,42.2h353.7c19.7,0,37.8,5,52.3,18.9,12.7,12.7,20.9,29.2,21,47.2v6.1c-.4,21.4-11.7,37.5-23.1,55-2.7,4-5.2,8.1-7.8,12.1-.9,1.5-1.9,3.1-2.9,4.6-.5.7-.9,1.5-1.4,2.2l-4.3,6.7c-5.4,8.6-10.9,17.3-16.2,25.9-6.8,10.9-13.7,21.7-20.5,32.6-5.9,9.4-11.8,18.8-17.7,28.2-5.8,9.4-11.7,18.8-17.7,28.1-2.4,3.9-4.9,7.7-7.2,11.5-2.9,4.6-5.8,9.2-8.7,13.8-5.4,8.6-10.8,17.3-16.2,25.9-6.8,10.9-13.7,21.7-20.5,32.6l-4.3,6.7c-.5.7-.9,1.5-1.4,2.2-2.8,4.4-5.5,8.9-8.3,13.3-18.6,29.9-37.3,47.5-55.9,52.7-19.9,4.1-39.7.4-56.9-10.6-14.1-10.2-22.4-25.7-31.3-40.1-1.2-1.9-2.4-3.9-3.6-5.8-1.8-3-3.8-6-5.6-9-5.2-8.4-10.5-16.7-15.8-25.1-3-4.6-5.8-9.3-8.8-13.9-2.4-3.8-4.8-7.7-7.2-11.4-6.1-9.6-12.1-19.3-18.2-28.9-5.7-9.1-11.4-18.3-17.3-27.4-7-11.1-14-22.3-21-33.4-5.2-8.4-10.5-16.7-15.8-25.1-3-4.6-5.8-9.3-8.8-13.9-2.4-3.8-4.8-7.7-7.2-11.4-6.1-9.6-12.1-19.3-18.2-28.9-3.4-5.4-6.8-10.8-10.2-16.2-1.9-3-3.8-6-5.7-9-.8-1.3-1.7-2.8-2.6-4.1-11.5-18.1-16.7-37.3-12.9-58.9,4.8-18.5,16.3-34,32.7-43.9,13.4-7.3,26.3-9.3,41.4-9.2v-.2h0Z"/>
  </g>
  <path class="st1" d="M67.8,23.9h379.5c11.8,0,22.7.8,31.5,9.5,8.2,9.6,9.5,18.3,9.4,30.7v34.4c0,12-2.1,21-10.4,29.9-1.6,1.5-3.3,3-5,4.4-3.1,2.6-6,5.4-8.9,8.2-4.5,4.2-9.1,8.4-13.7,12.5-3.2,2.9-6.4,5.8-9.5,8.8-4.7,4.3-9.3,8.6-14,12.9-2.3,2.1-4.5,4.1-6.8,6.2-.9.8-1.8,1.7-2.7,2.5-.4.4-.9.8-1.4,1.2-19.4,17.8-38.9,35.6-58.3,53.5-.4.4-.9.8-1.4,1.2-.9.8-1.8,1.7-2.7,2.5l-6.9,6.3c-4.2,3.9-8.5,7.7-12.7,11.6-.7.7-1.4,1.3-2.2,2-1.5,1.3-3.1,2.7-4.6,4-7.2,6.1-11.2,12-12.1,21.5-.1,4-.1,8-.1,12v103.8c0,8.8-1.5,17.1-7.8,23.7-.6.7-1.2,1.3-1.8,2-8.7,7.7-18.8,13.8-28.5,20.1l-13.2,8.7-2.7,1.8c-10.3,6.8-20.6,13.6-30.8,20.5-.6.4-1.3.9-2,1.3l-3.6,2.4c-5.8,3.9-9.9,4.3-16.8,3.6-4.5-2.1-6.7-4.7-9-9-.5-2.6-.5-5.2-.5-7.8v-177c0-9.6-1.8-17.6-8.7-24.6-3.4-3.3-6.9-6.4-10.5-9.6-1.5-1.4-3-2.7-4.5-4.1-.7-.6-1.4-1.3-2.2-2l-11.1-10.2c-2.8-2.6-5.6-5.2-8.5-7.8-.4-.4-.9-.8-1.3-1.2-.9-.8-1.8-1.6-2.7-2.5-2.3-2.1-4.5-4.1-6.8-6.2-.9-.8-1.8-1.7-2.7-2.5-39.8-36.5-60.1-55.1-61-56-.9-.8-1.8-1.7-2.7-2.5l-6.9-6.3c-4.2-3.8-8.3-7.6-12.5-11.4-4.1-3.7-8.1-7.4-12.2-11.2-2.5-2.3-5-4.5-7.7-6.6-5.4-4.6-9.1-11.3-11-18-.1-1.9-.2-4-.3-6.1v-43.3c-.1-11,1.6-20.3,9.5-28.5,10.5-8.9,20.5-9.4,33.7-9.4h-.2Z"/>
  <path class="st0" d="M67.8,23.9h379.5c11.8,0,22.7.8,31.5,9.5,8.2,9.6,9.5,18.3,9.4,30.7v34.4c0,12-2.1,21-10.4,29.9-1.6,1.5-3.3,3-5,4.4-3.1,2.6-6,5.4-8.9,8.2-4.5,4.2-9.1,8.4-13.7,12.5-3.2,2.9-6.4,5.8-9.5,8.8-4.7,4.3-9.3,8.6-14,12.9-2.3,2.1-4.5,4.1-6.8,6.2-.9.8-1.8,1.7-2.7,2.5-.4.4-.9.8-1.4,1.2-19.4,17.8-38.9,35.6-58.3,53.5-.4.4-.9.8-1.4,1.2-.9.8-1.8,1.7-2.7,2.5l-6.9,6.3c-4.2,3.9-8.5,7.7-12.7,11.6-.7.7-1.4,1.3-2.2,2-1.5,1.3-3.1,2.7-4.6,4-7.2,6.1-11.2,12-12.1,21.5-.1,4-.1,8-.1,12v103.8c0,8.8-1.5,17.1-7.8,23.7-.6.7-1.2,1.3-1.8,2-8.7,7.7-18.8,13.8-28.5,20.1l-13.2,8.7-2.7,1.8c-10.3,6.8-20.6,13.6-30.8,20.5-.6.4-1.3.9-2,1.3l-3.6,2.4c-5.8,3.9-9.9,4.3-16.8,3.6-4.5-2.1-6.7-4.7-9-9-.5-2.6-.5-5.2-.5-7.8v-177c0-9.6-1.8-17.6-8.7-24.6-3.4-3.3-6.9-6.4-10.5-9.6-1.5-1.4-3-2.7-4.5-4.1-.7-.6-1.4-1.3-2.2-2l-11.1-10.2c-2.8-2.6-5.6-5.2-8.5-7.8-.4-.4-.9-.8-1.3-1.2-.9-.8-1.8-1.6-2.7-2.5-2.3-2.1-4.5-4.1-6.8-6.2-.9-.8-1.8-1.7-2.7-2.5-39.8-36.5-60.1-55.1-61-56-.9-.8-1.8-1.7-2.7-2.5l-6.9-6.3c-4.2-3.8-8.3-7.6-12.5-11.4-4.1-3.7-8.1-7.4-12.2-11.2-2.5-2.3-5-4.5-7.7-6.6-5.4-4.6-9.1-11.3-11-18-.1-1.9-.2-4-.3-6.1v-43.3c-.1-11,1.6-20.3,9.5-28.5,10.5-8.9,20.5-9.4,33.7-9.4h-.2Z"/>
</svg>