<?xml version="1.0" encoding="UTF-8"?>
<svg xmlns="http://www.w3.org/2000/svg" version="1.1" viewBox="0 0 512 512">
  <defs>
    <style>
      .cls-1 {
        font-family: HelveticaCE-Bold, Helvetica;
        font-size: 550.1px;
        font-weight: 700;
      }

      .cls-1, .cls-2 {
        display: none;
      }

      .cls-1, .cls-3 {
        fill: #525252;
        stroke: #525252;
        stroke-miterlimit: 10;
        stroke-width: 26px;
      }

      .cls-2 {
        fill: #a9a9a9;
      }
    </style>
  </defs>
  <!-- Generator: Adobe Illustrator 28.6.0, SVG Export Plug-In . SVG Version: 1.2.0 Build 709)  -->
  <g>
    <g id="Layer_1">
      <path class="cls-2" d="M392,83l3,2.4c14.3,11.6,27.1,24.7,38,39.6l1.9,2.6c34.3,47.4,47.4,106.6,38.6,164.2-6.2,36.6-21.1,71.3-44.5,100.2l-2.4,3c-11.6,14.3-24.8,27.1-39.6,38l-2.6,1.9c-47.4,34.3-106.6,47.4-164.2,38.6-23.3-3.9-45.5-11.3-66.2-22.5l-2-1c-28.6-15.1-54-36.8-73-63l-1.9-2.6c-34.3-47.4-47.4-106.6-38.6-164.2,6.2-36.8,21.2-71.1,44.5-100.2l2.4-3c11.6-14.3,24.7-27.1,39.6-38l2.6-1.9c77.2-55.8,186.2-54.9,264.4,5.9ZM204.3,149.6c-13.9,14.4-21.7,33.4-21.3,53.4.7,4.9,2.1,8.6,5.9,11.9,5.4,3.5,9.7,4.9,16.1,4.1,5.2-1.7,8.5-3.8,12-8,1.8-4.4,2.4-8.5,2.8-13.2,1.2-10.5,5.6-19.5,14-26.2,8.6-5.8,18-7.7,28.2-6.6,10.2,2.2,18.2,6.8,24.4,15.3,5.7,9.4,7.4,19.9,4.9,30.7-3.2,9.5-8.6,16.9-17.3,22-6,2.9-11.7,4.2-18.3,5-5.4.7-8.7,1.2-12.7,5-4.2,5.4-5.1,9.2-5.2,15.9v3.6s0,3.9,0,3.9v2c0,3.5,0,7,0,10.5,0,3.6,0,7.2,0,10.8,0,2.8,0,5.5,0,8.3,0,2,0,3.9,0,5.9,0,8.2.2,14.8,6.1,21,5.6,3.7,10.5,4.6,17.1,3.7,4.8-1.2,7.5-3.7,10.5-7.5,2.2-3.9,2.8-6.9,2.9-11.3v-2.5c0,0,.1-2.7.1-2.7v-2.8c.1-3,.2-5.9.2-8.9v-6c.2-4.9.3-9.8.4-14.7l2.4-1c20.6-8.5,35.7-20.3,45.5-40.6,7.9-18.9,8-38.8.4-57.8-2.7-5.9-6.2-11.5-10.2-16.6l-1.8-2.3c-12.3-14.8-30.6-23.5-49.5-25.5-21.8-1-41.3,6.5-57.3,21.4h0ZM243.5,370.3c-3.5,3.9-5.4,7.8-5.5,13.1.3,5.6,1.3,9.3,5,13.6,4.9,4.3,9.7,5.2,16,5,4.5-.8,7.8-2.4,10.9-5.8,3.8-5.7,4.5-10,3.7-16.8-1.1-4.8-3.5-7.5-7.2-10.7-7.5-3.7-16.3-4.1-22.9,1.6h0Z"/>
      <text class="cls-1" transform="translate(85.5 456)"><tspan x="0" y="0">?</tspan></text>
      <path class="cls-3" d="M215,324.5c0-52.8,6.1-75.9,61.8-111.7,23.6-14.9,37.6-31.9,37.6-54.5,0-42.9-33.3-54.5-58.8-54.5-54.5,0-62.4,37.4-65.4,63.3v.6h-85.4c0-95.7,79.3-128.7,145.4-128.7s155.1,9.4,155.1,117.2-26.7,71-73.3,101.2c-26,17.1-36.9,27.5-36.9,67.1h-80ZM301,481h-88.4v-77.6h88.4v77.6Z"/>
    </g>
  </g>
</svg>
