<?xml version="1.0" encoding="UTF-8"?>
<svg xmlns="http://www.w3.org/2000/svg" version="1.1" viewBox="0 0 512 512">
  <defs>
    <style>
      .cls-1 {
        fill: #ccc;
      }
    </style>
  </defs>
  <!-- Generator: Adobe Illustrator 28.6.0, SVG Export Plug-In . SVG Version: 1.2.0 Build 709)  -->
  <g>
    <g id="Layer_1">
      <path class="cls-1" d="M392.1,11.1h4.6c7.1.7,12.1,3.5,16.8,8.7,8.8,10.9,9.5,26.9,11.8,40.4l1,5.9c.7,4.1,1.4,8.2,2.1,12.4.9,5.3,1.8,10.5,2.7,15.7.7,4.1,1.4,8.1,2.1,12.2.3,1.9.7,3.9,1,5.8q4.7,26.9-2.2,37.3c-11.1,14-29.6,14.1-46.2,16.9l-5.4.9c-3.7.6-7.5,1.3-11.2,1.9-4.7.8-9.5,1.6-14.2,2.5-3.7.6-7.4,1.3-11.1,1.9-1.7.3-3.5.6-5.2.9q-31.1,5.5-40.8-1.3l-3.3-2.1c-6.5-6.3-8.5-12.4-8.8-21.4.3-8.4,1.7-14.5,7.8-20.5,6.6-5.3,12.4-7.2,20.7-8.5l3.2-.6c2.1-.4,4.3-.7,6.4-1.1,5.4-.9,10.7-2,16-3.1-13.7-6.8-27.2-12.8-42-16.6l-4.7-1.2c-26.6-5.8-55.7-4.5-81.9,2.5l-2.9.8c-23.3,6.4-45,17.9-63.3,33.6l-3.4,2.9c-33.6,29.2-54.4,70.1-59,114.3-1.2,19.3-.7,38.5,3.8,57.3l.6,2.6c6.9,30.1,22.8,56.8,44,78.9l2.9,3.1c30.6,32.2,74,48.2,117.8,50.6,46.8.6,90.7-15.7,125.1-47.4l3.6-3.3c26.5-25.3,43.2-59.3,49.1-95.3,1.6-9.2,5.4-16.7,13-22.3,7.7-4.7,14.6-4.7,23.4-3.9,8,2.2,13.3,7.2,17.8,14,5,10.4,2.3,22.1,0,32.9l-.9,3.9c-4.7,20.3-11.9,39.3-22,57.5l-1.4,2.5c-9.5,16.9-21,31.9-34.3,45.9l-1.8,1.9c-37.3,39.8-93.1,67.8-148.2,69.6q-45.2,1-66.5-4l-3.4-.8c-38.8-9.1-75.2-27.1-104.2-54.8-2.6-2.5-5.3-4.8-8.1-7.1-40.6-34.3-62.1-92.2-67.4-143.7-.1-2.5-.2-5-.3-7.6v-2.7c-1.9-53.9,13.3-108.8,47.1-151.4l1.6-2c19.8-25,43.1-44.9,71-60.4l2.3-1.3c50.8-28.4,115.1-34.4,170.9-19.2,17.1,4.9,33.7,11.4,49.6,19.3l-.9-4.6q-4.9-26.2,1.2-36.7c6.2-8.9,13-12.6,23.7-12.7h0Z"/>
    </g>
  </g>
</svg>