<?xml version="1.0" encoding="UTF-8"?>
<svg id="Layer_1" xmlns="http://www.w3.org/2000/svg" version="1.1" viewBox="0 0 512 512">
  <!-- Generator: Adobe Illustrator 30.0.0, SVG Export Plug-In . SVG Version: 2.1.1 Build 123)  -->
  <defs>
    <style>
      .st0 {
        fill: #00aeef;
      }

      .st1 {
        fill: #fff200;
      }

      .st2 {
        fill: #ec0000;
      }

      .st3 {
        fill: #000083;
      }

      .st4 {
        fill: #ec008c;
      }

      .st5 {
        fill: #00a500;
      }

      .st6 {
        isolation: isolate;
      }

      .st7 {
        fill: #2b2b2b;
      }

      .st8 {
        mix-blend-mode: multiply;
      }
    </style>
  </defs>
  <g class="st6">
    <g class="st8">
      <path class="st4" d="M123.6,367.4h-7v6.6h7v-6.6ZM381.7,367.4h-7v6.6h7v-6.6ZM123.6,264.2h-7v6.6h7v-6.6ZM381.7,264.2h-7v6.6h7v-6.6ZM123.6,160.9h-7v6.6h7v-6.6ZM381.7,160.9h-7v6.6h7v-6.6ZM478,119v255.1c0,16.6-7.8,31.4-20,40.8v4.2c0,13.2-4.9,25.2-13,34.3,23-5.2,40-25.8,40-50.3V144.9c0-9.5-2.5-18.3-7-26"/>
      <path class="st0" d="M168.3,351.4h-44.6v16h24.6v6.6h20v-22.6ZM426.4,351.4h-44.6v16h24.6v6.6h20v-22.6ZM168.3,248.2h-44.6v16h24.6v6.6h20v-22.6ZM426.4,248.2h-44.6v16h24.6v6.6h20v-22.6ZM168.3,144.9h-44.6v16h24.6v6.6h20v-22.6ZM426.4,144.9h-44.6v16h24.6v6.6h20v-22.6ZM65,120.1c-12.2,9.4-20,24.2-20,40.8v258.1c0,28.5,23.1,51.6,51.6,51.6h309.8c15.4,0,29.1-6.7,38.6-17.3-3.7.9-7.6,1.3-11.6,1.3H123.6c-28.5,0-51.6-23.1-51.6-51.6v-3c-4.5-7.6-7-16.5-7-26V120.1Z"/>
      <path class="st3" d="M72,400.1v3c0,28.5,23.1,51.6,51.6,51.6h309.7c4,0,7.9-.4,11.6-1.3,8.1-9.1,13-21.1,13-34.3v-4.2c-8.7,6.8-19.7,10.8-31.6,10.8H116.6c-19.1,0-35.7-10.3-44.6-25.6M168.3,322.4h-51.6v45h7v-16h44.6v-29ZM426.4,322.4h-51.6v45h7v-16h44.6v-29ZM168.3,219.2h-51.6v45h7v-16h44.6v-29ZM426.4,219.2h-51.6v45h7v-16h44.6v-29ZM168.3,115.9h-51.6v45h7v-16h44.6v-29ZM426.4,115.9h-51.6v45h7v-16h44.6v-29Z"/>
      <path class="st1" d="M148.2,374.1h-24.6v29h24.6v-29ZM406.4,374.1h-24.6v29h24.6v-29ZM148.2,270.8h-24.6v29h24.6v-29ZM406.4,270.8h-24.6v29h24.6v-29ZM148.2,167.6h-24.6v29h24.6v-29ZM406.4,167.6h-24.6v29h24.6v-29ZM426.4,64.3H116.6c-28.5,0-51.6,23.1-51.6,51.6v4.2c5.8-4.5,12.6-7.8,20.1-9.5,9.5-10.6,23.2-17.3,38.6-17.3h309.7c19.1,0,35.7,10.3,44.6,25.6v-3c0-28.5-23.1-51.6-51.6-51.6"/>
      <path class="st2" d="M116.6,367.4h-20v51.6h51.6v-16h-24.6v-29h-7v-6.6ZM374.8,367.4h-20v51.6h51.6v-16h-24.6v-29h-7v-6.6ZM116.6,264.2h-20v51.6h51.6v-16h-24.6v-29h-7v-6.6ZM374.8,264.2h-20v51.6h51.6v-16h-24.6v-29h-7v-6.6ZM116.6,160.9h-20v51.6h51.6v-16h-24.6v-29h-7v-6.6ZM374.8,160.9h-20v51.6h51.6v-16h-24.6v-29h-7v-6.6ZM433.4,93.3H123.6c-15.3,0-29.1,6.7-38.6,17.3,3.7-.9,7.6-1.3,11.6-1.3h309.8c28.5,0,51.6,23.1,51.6,51.6v253.9c12.2-9.4,20-24.2,20-40.8V119c-8.9-15.3-25.6-25.6-44.6-25.6"/>
      <path class="st5" d="M175.2,351.4h-7v22.6h-20v29h27v-51.6ZM433.4,351.4h-7v22.6h-20v29h27v-51.6ZM175.2,248.2h-7v22.6h-20v29h27v-51.6ZM433.4,248.2h-7v22.6h-20v29h27v-51.6ZM175.2,144.9h-7v22.6h-20v29h27v-51.6ZM433.4,144.9h-7v22.6h-20v29h27v-51.6ZM85.1,110.6c-7.4,1.7-14.2,5-20.1,9.5v253.9c0,9.5,2.5,18.4,7,26v-255.1c0-13.2,4.9-25.2,13.1-34.3"/>
      <path class="st7" d="M116.6,367.4v-45h51.6v29h7v51.6h-27v16h-51.6v-51.6h20ZM374.8,367.4v-45h51.6v29h7v51.6h-27v16h-51.6v-51.6h20ZM116.6,264.2v-45h51.6v29h7v51.6h-27v16h-51.6v-51.6h20ZM374.8,264.2v-45h51.6v29h7v51.6h-27v16h-51.6v-51.6h20ZM116.6,160.9v-45h51.6v29h7v51.6h-27v16h-51.6v-51.6h20ZM374.8,160.9v-45h51.6v29h7v51.6h-27v16h-51.6v-51.6h20ZM406.4,109.3H96.6c-4,0-7.9.4-11.6,1.3-8.1,9.1-13.1,21.1-13.1,34.3v255.1c8.9,15.3,25.6,25.6,44.6,25.6h309.7c11.9,0,22.9-4,31.6-10.8v-253.9c0-28.5-23.1-51.6-51.6-51.6"/>
    </g>
  </g>
</svg>