<?xml version="1.0" encoding="UTF-8"?>
<svg xmlns="http://www.w3.org/2000/svg" version="1.1" viewBox="0 0 528.1 528.8">
  <defs>
    <style>
      .cls-1 {
        fill: #443a91;
      }
    </style>
  </defs>
  <!-- Generator: Adobe Illustrator 28.6.0, SVG Export Plug-In . SVG Version: 1.2.0 Build 709)  -->
  <g>
    <g id="Layer_1">
      <g id="Layer_1-2" data-name="Layer_1">
        <g id="Layer_1-2">
          <path class="cls-1" d="M209.1,9.4c37,0,74,0,111.6.4,9.1,2.6,14.7,8.5,16.1,16.7,3.3,19,5.5,38.3,8.4,57.4.3,2,1.9,4.4,3.7,5.5,8.3,5.1,17,9.8,25.4,14.8,3.3,2,6.4,1.7,9.8.4,17.1-6.8,34.2-13.7,51.5-20,10.6-3.9,21.9.8,27.3,10.4,7.4,13.1,15,26.2,22.5,39.3,9,15.8,18.3,31.4,27.1,47.3,4.8,8.5,2.8,20.4-4.3,26.3-14.8,12.2-30,23.9-45.1,35.7-2.7,2.1-3.9,3.7-3.4,7.9,1,9.5.7,19.3-.1,28.9-.3,3,.1,4.7,2.1,6.2l43.2,33.3c8.7,6.7,13.6,19.6,7.4,30.3-8.5,14.6-16.6,29.4-25.1,44-8.4,14.6-17.2,29-25.6,43.7-5.3,9.2-15.9,12.3-26,8.7-17.5-6.2-34.7-13.4-52-20-2.1-.8-5.2-1.5-6.9-.6-9.5,5-18.8,10.5-28.1,16-1.5.9-3.1,2.7-3.3,4.2-2.5,17.4-4.6,34.8-7.3,52.2-.8,4.9-2.5,10.1-5.1,14.3-2.3,3.6-6.4,6.1-9.8,9.1-38.4,0-76.7,0-115.6-.3-3.8-3.2-7.5-5.7-10.3-8.9-4.7-5.3-4.3-12.2-5.2-18.8-1.7-13.5-4.1-27-5.8-40.5-.8-6.3-2.1-11-9.2-13.8-7.7-3-14.6-8.2-21.6-12.7-2.6-1.7-4.9-2-7.5-.9-15.8,6.3-31.6,12.4-47.2,19.2-12.9,5.6-27.2,3.3-33.9-9.8-6.4-12.4-14-24.2-21-36.3-8.4-14.4-16.8-28.9-25.3-43.3-8.1-13.8-6-26.6,4.8-35.2,14.2-11.3,28.8-22.2,43.2-33.3,2.4-1.8,2.7-4,2.5-7.2-.7-9.1-1.2-18.3-.3-27.3.5-4.4-.3-6.5-3.6-8.8-5.8-4.1-11.5-8.3-17.1-12.7-8.2-6.4-16.3-13-24.4-19.4-6.6-5.2-12.9-15.3-9.2-24.8,3.3-8.5,7.6-16.6,12.1-24.5,12.8-22.5,26-44.7,39-67.2,5.3-9.1,17-14.2,26.9-10.5,17.6,6.5,35,13.4,52.3,20.5,3.8,1.6,6.4,1.3,9.6-.8,6.6-4.3,13.3-8.5,20.3-12.1,4.8-2.5,8.8-4.2,9.2-11.1.6-10.7,2.9-21.2,4.4-31.8,1.1-7.7,1.8-15.5,3.4-23.2,1.8-8.4,8.2-13,15.6-16.3M231.1,342.9c15,6.2,30.5,9.3,46.6,6.4,22-4.1,40.5-14.2,54.2-32.3,14.5-19.1,20.9-40.6,17-64.3-3.6-22-14.1-40.5-32.2-54.2-19.1-14.5-40.7-20.8-64.4-16.9-22,3.6-40.6,14.1-54.2,32.3-14.8,19.9-21,41.9-16.2,66.6,5.7,29,21.8,49.5,49.1,62.5h0Z"/>
        </g>
      </g>
    </g>
  </g>
</svg>