<?xml version="1.0" encoding="UTF-8"?>
<svg xmlns="http://www.w3.org/2000/svg" version="1.1" viewBox="0 0 512 512">
  <!-- Generator: Adobe Illustrator 30.0.0, SVG Export Plug-In . SVG Version: 2.1.1 Build 123)  -->
  <defs>
    <style>
      .st0, .st1 {
        fill: #00aeef;
      }

      .st2, .st3 {
        fill: #fff200;
      }

      .st4, .st5 {
        fill: #ec008c;
      }

      .st6, .st7 {
        isolation: isolate;
      }

      .st6, .st8 {
        mix-blend-mode: multiply;
      }

      .st1, .st3, .st5 {
        display: none;
      }
    </style>
  </defs>
  <g class="st7">
    <g id="Layer_1">
      <g id="Cuadradito" class="st8">
        <g id="Cyan" class="st6">
          <rect class="st4" x="270.9" y="47" width="192.1" height="181" rx="17" ry="17"/>
          <rect class="st4" x="38.3" y="47.4" width="192.1" height="181" rx="17" ry="17"/>
          <rect class="st4" x="36.9" y="281" width="192.1" height="181" rx="17" ry="17"/>
          <rect class="st5" x="266.8" y="283.6" width="192.1" height="181" rx="17" ry="17"/>
          <path class="st4" d="M340.4,410c1.3-2.1,2.5-4.1,3.7-6.1,3.6-6,7.5-11.9,11.3-17.8,5.6-8.5,11.5-16.8,17.6-25,5.6-7.4,11.2-14.7,17.2-21.8,6.7-8,13.5-15.8,20.7-23.4,10.1-10.5,20.5-20.7,31.9-29.8,4.3-3.5,8.7-6.9,13.5-9.7,1.6-.9,3.2-1.8,4.9-2.5,5-1.9,11.5.5,14.1,5.1,1.8,3.3,1.7,6.7,0,10-.5,1-1.2,1.9-2,2.7-4.6,5-9.3,9.9-13.9,15-6.4,6.9-12.6,14-18.6,21.2-5,6.1-9.9,12.2-14.7,18.5-5.3,6.9-10.3,13.9-15.3,21-7.5,10.8-14.8,21.7-21.5,33-8.8,14.6-17.1,29.5-24.9,44.7-3.1,6.1-6.3,12.1-9.4,18.2-2.9,5.6-7.6,8.5-13.8,9.3-1.7.2-3.5,0-5.2-.5-4.7-1.3-8.4-4-10.7-8.3-2.5-4.6-5-9.2-7.6-13.8-4.3-7.8-8.7-15.5-13.2-23.2-4.4-7.5-8.6-15-13-22.5-3.9-6.7-8-13.4-11.9-20.2-1.4-2.4-2.6-4.8-3.8-7.3-4.8-10.9,2.5-22.7,13.9-24,3.2-.4,6.2.2,9.2,1.4,1.2.5,2.1,1.3,3,2.2,2.3,2.4,4.3,5,6.4,7.6,7.5,9.6,14.6,19.5,21.4,29.5,3.2,4.8,6.3,9.8,9.4,14.6.4.6.7,1.2,1.5,1.8Z"/>
        </g>
        <g id="Cyan1" class="st6">
          <rect class="st0" x="288.2" y="58.1" width="192.1" height="181" rx="17" ry="17"/>
          <rect class="st0" x="55.6" y="58.5" width="192.1" height="181" rx="17" ry="17"/>
          <rect class="st0" x="54.2" y="292.1" width="192.1" height="181" rx="17" ry="17"/>
          <rect class="st1" x="284.1" y="294.7" width="192.1" height="181" rx="17" ry="17"/>
          <path class="st0" d="M350,415.1c1.3-2.1,2.5-4.1,3.7-6.1,3.6-6,7.5-11.9,11.3-17.8,5.6-8.5,11.5-16.8,17.6-25,5.6-7.4,11.2-14.7,17.2-21.8,6.7-8,13.5-15.8,20.7-23.4,10.1-10.5,20.5-20.7,31.9-29.8,4.3-3.5,8.7-6.9,13.5-9.7,1.6-.9,3.2-1.8,4.9-2.5,5-1.9,11.5.5,14.1,5.1,1.8,3.3,1.7,6.7,0,10-.5,1-1.2,1.9-2,2.7-4.6,5-9.3,9.9-13.9,15-6.4,6.9-12.6,14-18.6,21.2-5,6.1-9.9,12.2-14.7,18.5-5.3,6.9-10.3,13.9-15.3,21-7.5,10.8-14.8,21.7-21.5,33-8.8,14.6-17.1,29.5-24.9,44.7-3.1,6.1-6.3,12.1-9.4,18.2-2.9,5.6-7.6,8.5-13.8,9.3-1.7.2-3.5,0-5.2-.5-4.7-1.3-8.4-4-10.7-8.3-2.5-4.6-5-9.2-7.6-13.8-4.3-7.8-8.7-15.5-13.2-23.2-4.4-7.5-8.6-15-13-22.5-3.9-6.7-8-13.4-11.9-20.2-1.4-2.4-2.6-4.8-3.8-7.3-4.8-10.9,2.5-22.7,13.9-24,3.2-.4,6.2.2,9.2,1.4,1.2.5,2.1,1.3,3,2.2,2.3,2.4,4.3,5,6.4,7.6,7.5,9.6,14.6,19.5,21.4,29.5,3.2,4.8,6.3,9.8,9.4,14.6.4.6.7,1.2,1.5,1.8Z"/>
        </g>
        <g id="Amarillo" class="st6">
          <rect class="st2" x="282" y="31.1" width="192.1" height="181" rx="17" ry="17"/>
          <rect class="st2" x="49.3" y="31.6" width="192.1" height="181" rx="17" ry="17"/>
          <rect class="st2" x="47.9" y="265.1" width="192.1" height="181" rx="17" ry="17"/>
          <rect class="st3" x="277.8" y="267.8" width="192.1" height="181" rx="17" ry="17"/>
          <path class="st2" d="M336.5,402.4c1.3-2.1,2.5-4.1,3.7-6.1,3.6-6,7.5-11.9,11.3-17.8,5.6-8.5,11.5-16.8,17.6-25,5.6-7.4,11.2-14.7,17.2-21.8,6.7-8,13.5-15.8,20.7-23.4,10.1-10.5,20.5-20.7,31.9-29.8,4.3-3.5,8.7-6.9,13.5-9.7,1.6-.9,3.2-1.8,4.9-2.5,5-1.9,11.5.5,14.1,5.1,1.8,3.3,1.7,6.7,0,10-.5,1-1.2,1.9-2,2.7-4.6,5-9.3,9.9-13.9,15-6.4,6.9-12.6,14-18.6,21.2-5,6.1-9.9,12.2-14.7,18.5-5.3,6.9-10.3,13.9-15.3,21-7.5,10.8-14.8,21.7-21.5,33-8.8,14.6-17.1,29.5-24.9,44.7-3.1,6.1-6.3,12.1-9.4,18.2-2.9,5.6-7.6,8.5-13.8,9.3-1.7.2-3.5,0-5.2-.5-4.7-1.3-8.4-4-10.7-8.3-2.5-4.6-5-9.2-7.6-13.8-4.3-7.8-8.7-15.5-13.2-23.2-4.4-7.5-8.6-15-13-22.5-3.9-6.7-8-13.4-11.9-20.2-1.4-2.4-2.6-4.8-3.8-7.3-4.8-10.9,2.5-22.7,13.9-24,3.2-.4,6.2.2,9.2,1.4,1.2.5,2.1,1.3,3,2.2,2.3,2.4,4.3,5,6.4,7.6,7.5,9.6,14.6,19.5,21.4,29.5,3.2,4.8,6.3,9.8,9.4,14.6.4.6.7,1.2,1.5,1.8Z"/>
        </g>
      </g>
    </g>
  </g>
</svg>