<?xml version="1.0" encoding="UTF-8"?>
<svg id="Layer_2" xmlns="http://www.w3.org/2000/svg" version="1.1" viewBox="0 0 512 512">
  <!-- Generator: Adobe Illustrator 30.0.0, SVG Export Plug-In . SVG Version: 2.1.1 Build 123)  -->
  <defs>
    <style>
      .st0 {
        fill: #00aeef;
      }

      .st1 {
        fill: #fff200;
      }

      .st2 {
        fill: #ec0000;
      }

      .st3 {
        fill: #000083;
      }

      .st4 {
        fill: #ec008c;
      }

      .st5 {
        fill: #00a500;
      }
    </style>
  </defs>
  <path class="st4" d="M282,48.1c-6.4,2.4-11,8.6-11,15.9v147c0,9.4,7.6,17,17,17h1.4c-.7-1.8-1.1-3.8-1.1-5.9v-13.7c-3.8-3.1-6.3-7.9-6.3-13.2V48.1s0,0,0,0"/>
  <path class="st4" d="M49.3,48.5c-6.4,2.4-11,8.6-11,15.9v147c0,9.4,7.6,17,17,17h1.4c-.7-1.8-1.1-3.8-1.1-5.9v-13.7c-3.8-3.1-6.3-7.9-6.3-13.2V48.6s0,0,0,0"/>
  <path class="st4" d="M47.9,282.1c-6.4,2.4-11,8.6-11,15.9v147c0,9.4,7.6,17,17,17h1.4c-.7-1.8-1.1-3.8-1.1-5.9v-13.7c-3.8-3.1-6.3-7.9-6.3-13.2v-147s0,0,0,0"/>
  <path class="st4" d="M275.8,377.2c1.1,2.4,2.3,4.8,3.7,7.1,4,6.7,8,13.4,11.9,20.2,4.4,7.5,8.6,15,13,22.5,4.5,7.7,8.8,15.5,13.2,23.2,2.6,4.6,5.1,9.2,7.6,13.8,2.4,4.3,6,7,10.7,8.3.5.1,1,.3,1.5.3-1-1-1.9-2.2-2.6-3.6-.8-1.4-1.6-2.8-2.3-4.3-.2,0-.3,0-.5-.1-4.7-1.3-8.4-4-10.7-8.3-2.5-4.6-5-9.2-7.6-13.8-4.3-7.8-8.7-15.5-13.2-23.2-4.4-7.5-8.6-15-13-22.5-3.8-6.6-7.8-13.1-11.6-19.7M472.6,276c0,.8,0,1.7-.3,2.5.7-.1,1.4-.2,2.2-.2s.2,0,.3,0c-.6-.9-1.3-1.7-2.2-2.3"/>
  <path class="st0" d="M474.1,61.8v133.3c0,7.3-4.6,13.5-11,15.9,0,9.4-7.6,16.9-17,16.9h-156.8c2.4,6.5,8.6,11.1,15.9,11.1h158.1c9.4,0,17-7.6,17-17V75.1c0-5.3-2.5-10.1-6.3-13.2"/>
  <path class="st3" d="M288.2,208.3v13.7c0,2.1.4,4.1,1.1,5.9h156.8c9.4,0,17-7.6,17-16.9-1.9.7-3.9,1.1-6,1.1h-158.1c-4.1,0-7.8-1.4-10.7-3.8"/>
  <path class="st0" d="M241.4,62.3v133.3c0,7.3-4.6,13.5-11,15.9,0,9.4-7.6,16.9-17,16.9H56.6c2.4,6.5,8.6,11.1,15.9,11.1h158.1c9.4,0,17-7.6,17-17V75.5c0-5.3-2.5-10.1-6.3-13.2"/>
  <path class="st3" d="M55.6,208.8v13.7c0,2.1.4,4.1,1.1,5.9h156.8c9.4,0,17-7.6,17-16.9-1.9.7-3.9,1.1-6,1.1H66.3c-4.1,0-7.8-1.4-10.7-3.8"/>
  <path class="st0" d="M240,295.9v133.3c0,7.3-4.6,13.5-11,15.9,0,9.4-7.6,16.9-17,16.9H55.3c2.4,6.5,8.6,11.1,15.9,11.1h158.1c9.4,0,17-7.6,17-17v-147c0-5.3-2.5-10.1-6.3-13.2"/>
  <path class="st3" d="M54.2,442.3v13.7c0,2.1.4,4.1,1.1,5.9h156.8c9.4,0,17-7.6,17-16.9-1.9.7-3.9,1.1-6,1.1H64.9c-4.1,0-7.8-1.4-10.7-3.8"/>
  <path class="st0" d="M305.7,358.5c6.9,9,13.5,18.2,19.9,27.5,3.2,4.8,6.3,9.8,9.4,14.6.4.6.7,1.2,1.5,1.8.8-1.4,1.7-2.7,2.5-4.1-6.7-10-13.8-19.7-21.2-29.2-2-2.6-4-5.2-6.4-7.6-.9-.9-1.8-1.7-3-2.2-.9-.3-1.8-.6-2.7-.9M474.8,278.3c.2.2.3.5.5.7,1.8,3.3,1.7,6.7,0,10-.5,1-1.2,1.9-2,2.7-4.6,5-9.3,9.9-13.9,15-6.4,6.9-12.6,14-18.6,21.2-5,6.1-9.9,12.2-14.7,18.5-5.3,6.9-10.3,13.9-15.3,21-7.5,10.8-14.8,21.7-21.5,33-8.8,14.6-17.1,29.5-24.9,44.7-3.1,6.1-6.3,12.1-9.4,18.2-2.9,5.6-7.6,8.5-13.8,9.3-.4,0-.9,0-1.3,0-.8,0-1.6,0-2.4-.2,2.2,2.3,4.9,3.8,8.1,4.7,1.3.3,2.6.6,3.9.6s.9,0,1.3,0c6.2-.9,10.9-3.8,13.8-9.3,3.1-6.1,6.3-12.1,9.4-18.2,7.8-15.2,16.1-30.1,24.9-44.7,6.8-11.2,14-22.2,21.5-33,4.9-7.1,10-14.1,15.3-21,4.8-6.3,9.7-12.4,14.7-18.5,6-7.3,12.2-14.3,18.6-21.2,4.6-5,9.3-10,13.9-15,.8-.8,1.5-1.7,2-2.7,1.8-3.3,1.9-6.7,0-10-2-3.5-6.1-5.7-10.1-5.8"/>
  <path class="st3" d="M474.5,278.3c-.7,0-1.5,0-2.2.2-.2,1-.6,1.9-1.1,2.9-.5,1-1.2,1.9-2,2.7-4.6,5-9.3,9.9-13.9,15-6.4,6.9-12.6,14-18.6,21.2-5,6.1-9.9,12.2-14.7,18.5-5.3,6.9-10.3,13.9-15.3,21-7.5,10.8-14.8,21.7-21.5,33-8.8,14.6-17.1,29.5-24.9,44.7-3.1,6.1-6.3,12.1-9.4,18.2-2.9,5.6-7.6,8.5-13.8,9.3-.4,0-.9,0-1.3,0-1.1,0-2.3-.2-3.4-.5.8,1.4,1.6,2.8,2.3,4.3.7,1.3,1.6,2.5,2.6,3.6.8.2,1.6.2,2.4.2s.9,0,1.3,0c6.2-.9,10.9-3.8,13.8-9.3,3.1-6.1,6.3-12.1,9.4-18.2,7.8-15.2,16.1-30.1,24.9-44.7,6.8-11.2,14-22.2,21.5-33,4.9-7.1,10-14.1,15.3-21,4.8-6.3,9.7-12.4,14.7-18.5,6-7.3,12.2-14.3,18.6-21.2,4.6-5,9.3-10,13.9-15,.8-.8,1.5-1.7,2-2.7,1.8-3.3,1.9-6.7,0-10-.1-.3-.3-.5-.5-.7,0,0-.2,0-.3,0"/>
  <path class="st1" d="M457.1,31.1h-158.1c-9.4,0-17,7.6-17,16.9,1.9-.7,3.9-1.1,6-1.1h158.1c7.3,0,13.5,4.6,15.9,11.1h1.4c4.1,0,7.8,1.4,10.7,3.8v-13.7c0-9.4-7.6-17-17-17"/>
  <path class="st2" d="M446.1,47h-158.1c-2.1,0-4.1.4-6,1.1,0,0,0,0,0,0v147c0,5.3,2.5,10.1,6.3,13.2V75.1c0-9.4,7.6-17,17-17h156.8c-2.4-6.5-8.6-11.1-15.9-11.1"/>
  <path class="st5" d="M463.4,58.1h-1.4c.7,1.8,1.1,3.8,1.1,5.9v147s0,0,0,0c6.4-2.4,11-8.6,11-15.9V61.8c-2.9-2.4-6.7-3.8-10.7-3.8"/>
  <path d="M462,58.1h-156.8c-9.4,0-17,7.6-17,17v133.3c2.9,2.4,6.7,3.8,10.7,3.8h158.1c2.1,0,4.1-.4,6-1.1,0,0,0,0,0,0V64c0-2.1-.4-4.1-1.1-5.9"/>
  <path class="st1" d="M224.4,31.6H66.3c-9.4,0-17,7.6-17,16.9,1.9-.7,3.9-1.1,6-1.1h158.1c7.3,0,13.5,4.6,15.9,11.1h1.4c4.1,0,7.8,1.4,10.7,3.8v-13.7c0-9.4-7.6-17-17-17"/>
  <path class="st2" d="M213.4,47.4H55.3c-2.1,0-4.1.4-6,1.1,0,0,0,0,0,0v147c0,5.3,2.5,10.1,6.3,13.2V75.5c0-9.4,7.6-17,17-17h156.8c-2.4-6.5-8.6-11.1-15.9-11.1"/>
  <path class="st5" d="M230.7,58.5h-1.4c.7,1.8,1.1,3.8,1.1,5.9v147s0,0,0,0c6.4-2.4,11-8.6,11-15.9V62.3c-2.9-2.4-6.7-3.8-10.7-3.8"/>
  <path d="M229.3,58.5H72.6c-9.4,0-17,7.6-17,17v133.3c2.9,2.4,6.7,3.8,10.7,3.8h158.1c2.1,0,4.1-.4,6-1.1,0,0,0,0,0,0V64.4c0-2.1-.4-4.1-1.1-5.9"/>
  <path class="st1" d="M223,265.1H64.9c-9.4,0-17,7.6-17,16.9,1.9-.7,3.9-1.1,6-1.1h158.1c7.3,0,13.5,4.6,15.9,11.1h1.4c4.1,0,7.8,1.4,10.7,3.8v-13.7c0-9.4-7.6-17-17-17"/>
  <path class="st2" d="M212,281H53.9c-2.1,0-4.1.4-6,1.1,0,0,0,0,0,0v147c0,5.3,2.5,10.1,6.3,13.2v-133.3c0-9.4,7.6-17,17-17h156.8c-2.4-6.5-8.6-11.1-15.9-11.1"/>
  <path class="st5" d="M229.3,292.1h-1.4c.7,1.8,1.1,3.8,1.1,5.9v147s0,0,0,0c6.4-2.4,11-8.6,11-15.9v-133.3c-2.9-2.4-6.7-3.8-10.7-3.8"/>
  <path d="M228,292.1H71.2c-9.4,0-17,7.6-17,17v133.3c2.9,2.4,6.7,3.8,10.7,3.8h158.1c2.1,0,4.1-.4,6-1.1,0,0,0,0,0,0v-147c0-2.1-.4-4.1-1.1-5.9"/>
  <path class="st1" d="M287.6,345.2c-.6,0-1.3,0-1.9.1-11.5,1.3-18.8,13.2-13.9,24,1.1,2.5,2.4,5,3.8,7.3.1.2.2.3.3.5,0,0,0-.2-.1-.2-4.8-10.9,2.5-22.7,13.9-24,.6,0,1.3-.1,1.9-.1,2.5,0,4.9.6,7.3,1.5,1.2.5,2.1,1.3,3,2.2.5.5.9,1,1.4,1.5.9.1,1.7.3,2.6.5-.5-.7-1-1.3-1.5-2-2-2.6-4-5.2-6.4-7.6-.9-.9-1.8-1.7-3-2.2-2.4-.9-4.8-1.5-7.3-1.5M460.9,265.7c-1.3,0-2.5.2-3.7.7-1.7.6-3.3,1.5-4.9,2.5-4.8,2.8-9.1,6.3-13.5,9.7-11.4,9.2-21.9,19.3-31.9,29.8-7.2,7.5-14,15.4-20.7,23.4-6,7.1-11.6,14.4-17.2,21.8-6.1,8.2-12,16.5-17.6,25-3.8,5.9-7.7,11.8-11.3,17.8-.4.7-.8,1.3-1.2,2,0,.1.1.2.2.3,1.4,2.1,2.8,4.3,4.2,6.5.2-.4.5-.8.7-1.2,3.6-6,7.5-11.9,11.3-17.8,5.6-8.5,11.5-16.8,17.6-25,5.6-7.4,11.2-14.7,17.2-21.8,6.7-8,13.5-15.8,20.7-23.4,10.1-10.5,20.5-20.7,31.9-29.8,4.3-3.5,8.7-6.9,13.5-9.7,1.6-.9,3.2-1.8,4.9-2.5,1.2-.4,2.4-.7,3.7-.7,2.8,0,5.6,1,7.7,2.7,0-1.5-.5-3-1.3-4.5-2-3.6-6.3-5.8-10.4-5.8"/>
  <path class="st2" d="M291.5,352.8c-.6,0-1.3,0-1.9.1-11.5,1.3-18.8,13.2-13.9,24,0,0,0,.2.1.2,3.9,6.6,7.8,13.1,11.6,19.7,4.4,7.5,8.6,15,13,22.5,4.5,7.7,8.8,15.5,13.2,23.2,2.6,4.6,5.1,9.2,7.6,13.8,2.4,4.3,6,7,10.7,8.3.2,0,.3,0,.5.1-1.7-3.2-3.5-6.4-5.3-9.5-4.3-7.8-8.7-15.5-13.2-23.2-4.4-7.5-8.6-15-13-22.5-3.9-6.7-8-13.4-11.9-20.2-1.4-2.4-2.6-4.8-3.8-7.3-4.8-10.9,2.5-22.7,13.9-24,.6,0,1.3-.1,1.9-.1s1.3,0,2,.1c-.4-.5-.9-1-1.4-1.5-.9-.9-1.8-1.7-3-2.2-2.4-.9-4.8-1.5-7.3-1.5M464.9,273.3c-1.3,0-2.5.2-3.7.7-1.7.6-3.3,1.5-4.9,2.5-4.8,2.8-9.1,6.3-13.5,9.7-11.4,9.2-21.9,19.3-31.9,29.8-7.2,7.5-14,15.4-20.7,23.4-6,7.1-11.6,14.4-17.2,21.8-6.1,8.2-12,16.5-17.6,25-3.8,5.9-7.7,11.8-11.3,17.8-.2.4-.5.8-.7,1.2,1.7,2.7,3.4,5.4,5.2,8.2.4.6.7,1.2,1.5,1.8,1.3-2.1,2.5-4.1,3.7-6.1,3.6-6,7.5-11.9,11.3-17.8,5.6-8.5,11.5-16.8,17.6-25,5.6-7.4,11.2-14.7,17.2-21.8,6.7-8,13.5-15.8,20.7-23.4,10.1-10.5,20.5-20.7,31.9-29.8,4.3-3.5,8.7-6.9,13.5-9.7,1.6-.9,3.2-1.8,4.9-2.5.5-.2,1-.3,1.5-.4.2-.8.3-1.7.3-2.5-2.2-1.7-5-2.7-7.7-2.7"/>
  <path class="st5" d="M303.1,358c1.8,2,3.4,4,5,6.1,7.5,9.6,14.6,19.5,21.4,29.5,3.2,4.8,6.3,9.8,9.4,14.6.4.6.7,1.2,1.5,1.8,1-1.7,2-3.3,3-4.9-1.4-2.2-2.8-4.3-4.2-6.5,0-.1-.1-.2-.2-.3-.8,1.3-1.6,2.7-2.5,4.1-.7-.5-1.1-1.2-1.5-1.8-3.1-4.9-6.2-9.8-9.4-14.6-6.3-9.4-12.9-18.6-19.9-27.5-.9-.2-1.7-.4-2.6-.5"/>
  <path d="M472.3,278.5c-.5.1-1,.3-1.5.4-1.7.6-3.3,1.5-4.9,2.5-4.8,2.8-9.1,6.3-13.5,9.7-11.4,9.2-21.9,19.3-31.9,29.8-7.2,7.5-14,15.4-20.7,23.4-6,7.1-11.6,14.4-17.2,21.8-6.1,8.2-12,16.5-17.6,25-3.8,5.9-7.7,11.8-11.3,17.8-1.2,2-2.4,4-3.7,6.1-.7-.5-1.1-1.2-1.5-1.8-1.7-2.7-3.4-5.4-5.2-8.2-1,1.6-2,3.2-3,4.9-.7-.5-1.1-1.2-1.5-1.8-3.1-4.9-6.2-9.8-9.4-14.6-6.8-10.1-13.9-19.9-21.4-29.5-1.6-2.1-3.2-4.2-5-6.1-.7,0-1.3-.1-2-.1s-1.3,0-1.9.1c-11.5,1.3-18.8,13.2-13.9,24,1.1,2.5,2.4,5,3.8,7.3,4,6.7,8,13.4,11.9,20.2,4.4,7.5,8.6,15,13,22.5,4.5,7.7,8.8,15.5,13.2,23.2,1.8,3.2,3.5,6.4,5.3,9.5,1.1.3,2.2.5,3.4.5s.9,0,1.3,0c6.2-.9,10.9-3.8,13.8-9.3,3.1-6.1,6.3-12.1,9.4-18.2,7.8-15.2,16.1-30.1,24.9-44.7,6.8-11.2,14-22.2,21.5-33,4.9-7.1,10-14.1,15.3-21,4.8-6.3,9.7-12.4,14.7-18.5,6-7.3,12.2-14.3,18.6-21.2,4.6-5,9.3-10,13.9-15,.8-.8,1.5-1.7,2-2.7.5-1,.9-1.9,1.1-2.9"/>
</svg>